<?xml version="1.0" encoding="UTF-8" standalone="no"?>
<svg
   xmlns:dc="http://purl.org/dc/elements/1.1/"
   xmlns:cc="http://creativecommons.org/ns#"
   xmlns:rdf="http://www.w3.org/1999/02/22-rdf-syntax-ns#"
   xmlns:svg="http://www.w3.org/2000/svg"
   xmlns="http://www.w3.org/2000/svg"
   xmlns:sodipodi="http://sodipodi.sourceforge.net/DTD/sodipodi-0.dtd"
   xmlns:inkscape="http://www.inkscape.org/namespaces/inkscape"
   id="svg8"
   version="1.1"
   viewBox="0 0 100 100"
   height="100"
   width="100"
   sodipodi:docname="46-long-range-twin-rifle.svg"
   inkscape:version="0.92.4 (5da689c313, 2019-01-14)">
  <sodipodi:namedview
     pagecolor="#ffffff"
     bordercolor="#666666"
     borderopacity="1"
     objecttolerance="10"
     gridtolerance="10"
     guidetolerance="10"
     inkscape:pageopacity="0"
     inkscape:pageshadow="2"
     inkscape:window-width="1920"
     inkscape:window-height="1027"
     id="namedview13"
     showgrid="false"
     showguides="true"
     inkscape:guide-bbox="true"
     inkscape:zoom="2.6074563"
     inkscape:cx="3.6249542"
     inkscape:cy="-19.461185"
     inkscape:window-x="-8"
     inkscape:window-y="-8"
     inkscape:window-maximized="1"
     inkscape:current-layer="svg8"
     inkscape:snap-global="false" />
  <defs
     id="defs2" />
  <metadata
     id="metadata5">
    <rdf:RDF>
      <cc:Work
         rdf:about="">
        <dc:format>image/svg+xml</dc:format>
        <dc:type
           rdf:resource="http://purl.org/dc/dcmitype/StillImage" />
        <dc:title></dc:title>
      </cc:Work>
    </rdf:RDF>
  </metadata>
  <g
     id="layer1">
    <path
       style="opacity:1;fill:#070000;fill-opacity:1;fill-rule:nonzero;stroke:none;stroke-width:2.00781775;stroke-linecap:round;stroke-linejoin:round;stroke-miterlimit:4;stroke-dasharray:none;stroke-dashoffset:0;stroke-opacity:0.94117647;paint-order:stroke fill markers"
       d="m 87.351562,6.72461 -10.224609,3.31055 -4.3125,2.23828 1.035156,2.36523 4.615235,-1.41601 9.58789,-4.78516 z"
       id="path4577"
       inkscape:connector-curvature="0" />
    <path
       style="opacity:1;fill:#070000;fill-opacity:1;fill-rule:nonzero;stroke:none;stroke-width:2.00781775;stroke-linecap:round;stroke-linejoin:round;stroke-miterlimit:4;stroke-dasharray:none;stroke-dashoffset:0;stroke-opacity:0.94117647;paint-order:stroke fill markers"
       d="m 69.474609,9.44531 -31.009765,12.84375 -7.949219,-3.32226 -4.474609,1.85351 -0.597657,1.86133 -11.580078,4.74023 0.650391,1.61915 7.671875,4.38476 9.833984,-4.12305 3.078125,1.34766 24.146485,-10.01172 11.03125,-9.4414 z"
       id="path4575"
       inkscape:connector-curvature="0" />
    <path
       style="opacity:1;fill:#070000;fill-opacity:1;fill-rule:nonzero;stroke:none;stroke-width:2.00781775;stroke-linecap:round;stroke-linejoin:round;stroke-miterlimit:4;stroke-dasharray:none;stroke-dashoffset:0;stroke-opacity:0.94117647;paint-order:stroke fill markers"
       d="m 70.949219,12.97852 c -0.48994,0.37296 -7.761719,6.08203 -7.761719,6.08203 l 8.699219,-3.53516 z"
       id="path4573"
       inkscape:connector-curvature="0" />
    <path
       style="opacity:1;fill:#070000;fill-opacity:1;fill-rule:nonzero;stroke:none;stroke-width:2.00781775;stroke-linecap:round;stroke-linejoin:round;stroke-miterlimit:4;stroke-dasharray:none;stroke-dashoffset:0;stroke-opacity:0.94117647;paint-order:stroke fill markers"
       d="m 40.884766,13.83984 -3.90625,1.61914 -0.21875,1.28907 1.0625,2.5664 1.142578,0.67578 3.8125,-1.57812 z"
       id="path4571"
       inkscape:connector-curvature="0" />
    <path
       style="opacity:1;fill:#070000;fill-opacity:1;fill-rule:nonzero;stroke:none;stroke-width:2.00781775;stroke-linecap:round;stroke-linejoin:round;stroke-miterlimit:4;stroke-dasharray:none;stroke-dashoffset:0;stroke-opacity:0.94117647;paint-order:stroke fill markers"
       d="m 63.445312,21.12109 -28.763671,11.88868 -3.152344,-1.31055 -14.871094,6.08398 2.822266,1.83594 6.373047,-2.65234 -0.03516,0.67968 -2.037109,2.19532 1.068359,8.12695 8.47461,-1.08789 3.478515,-11.22852 2.388672,-0.94726 6.25586,9.23047 c 1.633922,-1.40028 2.489437,-1.87643 3.876953,-2.57618 0.613958,-0.46936 0.388352,-1.24231 -0.521485,-1.83398 l -1.560546,-0.12891 -4.1875,-6.33593 20.148437,-8.15039 c 1.06879,-0.43234 1.510672,-1.30356 0.951172,-2.40039 z"
       id="path4599"
       inkscape:connector-curvature="0" />
    <path
       style="opacity:1;fill:#070000;fill-opacity:1;fill-rule:nonzero;stroke:none;stroke-width:2.00781775;stroke-linecap:round;stroke-linejoin:round;stroke-miterlimit:4;stroke-dasharray:none;stroke-dashoffset:0;stroke-opacity:0.94117647;paint-order:stroke fill markers"
       d="m 30.396484,35.07617 3.353516,1.36524 -2.498047,8.04101 -4.015625,0.50781 -0.685547,-4.19336 2.091797,-2.4082 c 0.24843,-0.28609 0.278287,-0.69736 0.05273,-1.0957 l -0.691406,-1.2207 z"
       id="path4569"
       inkscape:connector-curvature="0" />
    <path
       style="opacity:1;fill:#070000;fill-opacity:1;fill-rule:nonzero;stroke:none;stroke-width:2.00781775;stroke-linecap:round;stroke-linejoin:round;stroke-miterlimit:4;stroke-dasharray:none;stroke-dashoffset:0;stroke-opacity:0.94117647;paint-order:stroke fill markers"
       d="m 13.890625,30.61328 -1.216797,4.05078 2.525391,1.69141 4.537109,-1.90235 z"
       id="path4567"
       inkscape:connector-curvature="0" />
    <path
       style="opacity:1;fill:#070000;fill-opacity:1;fill-rule:nonzero;stroke:none;stroke-width:2.00781775;stroke-linecap:round;stroke-linejoin:round;stroke-miterlimit:4;stroke-dasharray:none;stroke-dashoffset:0;stroke-opacity:0.94117647;paint-order:stroke fill markers"
       d="m 94.164062,44.0293 -12.208984,3.95312 -5.148437,2.67188 1.236328,2.82617 5.511719,-1.69141 L 95,46.07422 Z"
       id="path4563"
       inkscape:connector-curvature="0" />
    <path
       style="opacity:1;fill:#070000;fill-opacity:1;fill-rule:nonzero;stroke:none;stroke-width:2.00781775;stroke-linecap:round;stroke-linejoin:round;stroke-miterlimit:4;stroke-dasharray:none;stroke-dashoffset:0;stroke-opacity:0.94117647;paint-order:stroke fill markers"
       d="m 72.818359,47.27734 -37.02539,15.33594 -9.492188,-3.9668 -5.341797,2.21289 -0.71289,2.22266 -13.8261721,5.66016 0.7753906,1.93164 9.1601565,5.23633 11.742187,-4.92383 3.675782,1.60937 28.830078,-11.95312 13.171875,-11.27344 z"
       id="path4561"
       inkscape:connector-curvature="0" />
    <path
       style="opacity:1;fill:#070000;fill-opacity:1;fill-rule:nonzero;stroke:none;stroke-width:2.00781775;stroke-linecap:round;stroke-linejoin:round;stroke-miterlimit:4;stroke-dasharray:none;stroke-dashoffset:0;stroke-opacity:0.94117647;paint-order:stroke fill markers"
       d="m 74.578125,51.49609 c -0.58499,0.44532 -9.267578,7.26172 -9.267578,7.26172 l 10.388672,-4.2207 z"
       id="path4559"
       inkscape:connector-curvature="0" />
    <path
       style="opacity:1;fill:#070000;fill-opacity:1;fill-rule:nonzero;stroke:none;stroke-width:2.00781775;stroke-linecap:round;stroke-linejoin:round;stroke-miterlimit:4;stroke-dasharray:none;stroke-dashoffset:0;stroke-opacity:0.94117647;paint-order:stroke fill markers"
       d="m 38.681641,52.52539 -4.664063,1.93164 -0.259766,1.54102 1.269532,3.0625 1.363281,0.80859 4.552734,-1.88672 z"
       id="path4557"
       inkscape:connector-curvature="0" />
    <path
       style="opacity:1;fill:#070000;fill-opacity:1;fill-rule:nonzero;stroke:none;stroke-width:2.00781775;stroke-linecap:round;stroke-linejoin:round;stroke-miterlimit:4;stroke-dasharray:none;stroke-dashoffset:0;stroke-opacity:0.94117647;paint-order:stroke fill markers"
       d="m 65.621094,61.21875 -34.345703,14.19531 -3.761719,-1.5664 -17.7578126,7.26367 3.3710936,2.19336 7.609375,-3.16602 -0.04102,0.81055 -2.435546,2.62109 1.27539,9.70508 10.119141,-1.29883 4.154297,-13.40625 2.853515,-1.13086 7.466797,11.01953 c 1.950896,-1.67194 2.974177,-2.24068 4.63086,-3.07617 0.733066,-0.56041 0.463284,-1.48299 -0.623047,-2.18945 l -1.863281,-0.1543 -5,-7.5664 24.05664,-9.73047 c 1.27613,-0.51622 1.804769,-1.55564 1.136719,-2.86524 z"
       id="path4585"
       inkscape:connector-curvature="0" />
    <path
       style="opacity:1;fill:#070000;fill-opacity:1;fill-rule:nonzero;stroke:none;stroke-width:2.00781775;stroke-linecap:round;stroke-linejoin:round;stroke-miterlimit:4;stroke-dasharray:none;stroke-dashoffset:0;stroke-opacity:0.94117647;paint-order:stroke fill markers"
       d="m 26.160156,77.88281 4.003906,1.62891 -2.982421,9.59961 -4.796875,0.60742 -0.81836,-5.00781 2.498047,-2.875 c 0.296623,-0.34157 0.333753,-0.83297 0.06445,-1.3086 l -0.824218,-1.45703 z"
       id="path4555"
       inkscape:connector-curvature="0" />
    <path
       style="opacity:1;fill:#070000;fill-opacity:1;fill-rule:nonzero;stroke:none;stroke-width:2.00781775;stroke-linecap:round;stroke-linejoin:round;stroke-miterlimit:4;stroke-dasharray:none;stroke-dashoffset:0;stroke-opacity:0.94117647;paint-order:stroke fill markers"
       d="M 6.453125,72.55273 5,77.38867 8.0136719,79.4082 13.431641,77.13672 Z"
       id="path4553"
       inkscape:connector-curvature="0" />
  </g>
</svg>
